# xmcd
#
# Track frame offsets:
#	150
#	12062
#	25700
#	36300
#	45150
#	59425
#	70900
#	83750
#	96025
#	111400
#	122625
#	136750
#	148125
#	158075
#	169827
#	183550
#
# Disc length: 2630 seconds
#
# Revision: 2
# Processed by: cddbd v1.5.2PL0 Copyright (c) Steve Scherf et al.
# Submitted via: audiograbber 1.83.01
#
DISCID=d00a4410
DTITLE=Road House - Aussie Trucking
DYEAR=1900
DGENRE=Country
TTITLE0=Nev Nicholls - Supertrucker
TTITLE1=Dave Reynolds - Highway Fever
TTITLE2=The Wayfarers - Danger - Road Train
TTITLE3=Nev Nicholls - The Men Who Dare To Drive The Interstate
TTITLE4=John McSwseeney - My Diesel Frien
TTITLE5=Dave Reynolds - It's A Trucking Life
TTITLE6=Nev Nicholls - A Tiger In My Strides
TTITLE7=Jim Walsh - Home Cooking
TTITLE8=The Wayfarers - Road Train Blues
TTITLE9=Nev Nicholls - Footballin' Truck Drivin' Man
TTITLE10=John McSwseeney - Moving Kind
TTITLE11=Dave Reynolds - Old Queensland Special
TTITLE12=The Wayfarers - Rolling and Roaring Through The Night
TTITLE13=Nev Nicholls - Two Beers Away
TTITLE14=The Wayfarers - My Pacific Blue Rig
TTITLE15=Jim Walsh - Lights On The Hill
EXTD=
EXTT0=
EXTT1=
EXTT2=
EXTT3=
EXTT4=
EXTT5=
EXTT6=
EXTT7=
EXTT8=
EXTT9=
EXTT10=
EXTT11=
EXTT12=
EXTT13=
EXTT14=
EXTT15=
PLAYORDER=
